<svg xmlns="http://www.w3.org/2000/svg" viewBox="0 0 100 100" width="100" height="100">
  <defs>
    <linearGradient id="emeraldGrad" x1="0%" y1="0%" x2="100%" y2="100%">
      <stop offset="0%" stop-color="#10B981" />
      <stop offset="100%" stop-color="#047857" />
    </linearGradient>
    <linearGradient id="amberGrad" x1="0%" y1="0%" x2="100%" y2="100%">
      <stop offset="0%" stop-color="#FBBF24" />
      <stop offset="100%" stop-color="#D97706" />
    </linearGradient>
  </defs>
  <!-- Background Badge -->
  <rect x="5" y="5" width="90" height="90" rx="28" fill="url(#emeraldGrad)" />
  <!-- Speed Lines -->
  <path d="M16 38 H28" stroke="#A7F3D0" stroke-width="3" stroke-linecap="round" />
  <path d="M12 48 H24" stroke="#A7F3D0" stroke-width="3.5" stroke-linecap="round" />
  <path d="M18 58 H26" stroke="#A7F3D0" stroke-width="3" stroke-linecap="round" />
  <!-- Delivery Scooter -->
  <!-- Rear Wheel -->
  <circle cx="36" cy="66" r="10" fill="none" stroke="#FFFFFF" stroke-width="4.5" />
  <circle cx="36" cy="66" r="4" fill="#FFFFFF" />
  <!-- Front Wheel -->
  <circle cx="74" cy="66" r="10" fill="none" stroke="#FFFFFF" stroke-width="4.5" />
  <circle cx="74" cy="66" r="4" fill="#FFFFFF" />
  <!-- Scooter Frame -->
  <path d="M36 66 L46 66 L56 50 L70 50 L74 66" fill="none" stroke="#FFFFFF" stroke-width="4.5" stroke-linecap="round" stroke-linejoin="round" />
  <!-- Handlebar & Headlight -->
  <path d="M68 40 L64 50" stroke="#FFFFFF" stroke-width="4" stroke-linecap="round" />
  <circle cx="72" cy="46" r="3" fill="#FDE68A" />
  <!-- Delivery Top Box -->
  <rect x="28" y="38" width="18" height="18" rx="4" fill="url(#amberGrad)" stroke="#FFFFFF" stroke-width="2" />
  <path d="M32 47 H42" stroke="#FFFFFF" stroke-width="2" stroke-linecap="round" />
</svg>
